<svg width="25" height="24.56" viewBox="0 0 25 24.56" fill="none" xmlns="http://www.w3.org/2000/svg"><path d="M9.19 17.195c0 -1.04 0.635 -1.65 1.705 -1.65h3.215c1.07 0 1.705 0.615 1.705 1.65v5.5c0 1.04 -0.635 1.65 -1.705 1.65h-3.215c-1.07 0 -1.705 -0.615 -1.705 -1.65v-5.5Zm0 -15.545c0 -1.04 0.635 -1.65 1.705 -1.65h3.215c1.07 0 1.705 0.615 1.705 1.65v5.5c0 1.04 -0.635 1.65 -1.705 1.65h-3.215c-1.07 0 -1.705 -0.615 -1.705 -1.65V1.65Zm8.47 13.745c-1.065 0 -1.695 -0.615 -1.695 -1.66v-3.125c0 -1.045 0.63 -1.66 1.695 -1.66h5.645c1.065 0 1.695 0.615 1.695 1.66v3.13c0 1.045 -0.63 1.66 -1.695 1.66H17.66Zm-15.96 0c-1.065 0 -1.695 -0.615 -1.695 -1.66v-3.125c0 -1.045 0.63 -1.66 1.695 -1.66h5.645c1.065 0 1.695 0.615 1.695 1.66v3.13c0 1.045 -0.63 1.66 -1.695 1.66H1.695Z" fill="gray"/></svg>